<svg width="386" height="99" viewBox="0 0 386 99" fill="none" xmlns="http://www.w3.org/2000/svg">
<path d="M0 97.2341V10.6084H10.4588L69.5125 81.7652H64.0281V10.6084H76.7827V97.2341H66.3239L7.27012 26.0773H12.7546V97.2341H0ZM121.49 47.9812H167.407V58.5H121.49V47.9812ZM122.638 86.4678H174.678V97.2341H109.884V10.6084H172.892V21.3747H122.638V86.4678ZM201.707 97.2341V10.6084H236.527C244.351 10.6084 251.025 11.8047 256.551 14.1972C262.08 16.5896 266.33 20.0547 269.306 24.5923C272.283 29.1299 273.77 34.5335 273.77 40.8037C273.77 47.0738 272.283 52.4774 269.306 57.015C266.33 61.4701 262.08 64.8939 256.551 67.2864C251.025 69.6788 244.351 70.8751 236.527 70.8751H208.722L214.461 65.1826V97.2341H201.707ZM261.398 97.2341L238.695 65.8014H252.342L275.301 97.2341H261.398ZM214.461 66.4201L208.722 60.3563H236.144C244.307 60.3563 250.473 58.665 254.638 55.2825C258.891 51.8175 261.015 46.9912 261.015 40.8037C261.015 34.6161 258.891 29.831 254.638 26.4485C250.473 23.0661 244.307 21.3747 236.144 21.3747H208.722L214.461 15.1872V66.4201Z" fill="white"/>
<path d="M334.626 5.30359V47.7325C334.626 50.6616 337.073 53.0361 340.092 53.0361C343.111 53.0361 345.558 50.6616 345.558 47.7325V5.30359C345.558 2.37449 343.111 -2.28882e-05 340.092 -2.28882e-05C337.073 -2.28882e-05 334.626 2.37449 334.626 5.30359Z" fill="white"/>
<path fill-rule="evenodd" clip-rule="evenodd" d="M327.337 12.3628C308.387 17.7147 294.539 34.6901 294.539 54.8036C294.539 79.2129 314.934 99.0004 340.091 99.0004C365.249 99.0004 385.643 79.2129 385.643 54.8036C385.643 34.6901 371.795 17.7147 352.846 12.3628V23.5672C365.653 28.4944 374.711 40.6228 374.711 54.8036C374.711 73.3545 359.21 88.3931 340.091 88.3931C320.972 88.3931 305.472 73.3545 305.472 54.8036C305.472 40.6228 314.529 28.4944 327.337 23.5672V12.3628Z" fill="#D0EE17"/>
</svg>
